HIERARCHY
ROOT Hips
{
	OFFSET -3.958830 18.904000 13.208200
	CHANNELS 6 Xposition Yposition Zposition Zrotation Yrotation Xrotation 
	JOINT LHipJoint
	{
		OFFSET 0.000000 0.000000 0.000000
		CHANNELS 3 Zrotation Yrotation Xrotation
		JOINT LeftUpLeg
		{
			OFFSET 1.800000 -1.400000 0.085000
			CHANNELS 3 Zrotation Yrotation Xrotation
			JOINT LeftLeg
			{
				OFFSET 2.215000 -6.000000 0.000000
				CHANNELS 3 Zrotation Yrotation Xrotation
				JOINT LeftFoot
				{
					OFFSET 2.500000 -6.900000 0.000000
					CHANNELS 3 Zrotation Yrotation Xrotation
					JOINT LeftToeBase
					{
						OFFSET 0.200000 -0.500000 1.950000
						CHANNELS 3 Zrotation Yrotation Xrotation
						End Site
						{
							OFFSET 0.000000 0.000000 0.000000
						}
					}
				}
			}
		}
	}
	JOINT RHipJoint
	{
		OFFSET 0.000000 0.000000 0.000000
		CHANNELS 3 Zrotation Yrotation Xrotation
		JOINT RightUpLeg
		{
			OFFSET -1.800000 -1.400000 0.085000
			CHANNELS 3 Zrotation Yrotation Xrotation
			JOINT RightLeg
			{
				OFFSET -2.215000 -6.000000 0.000000
				CHANNELS 3 Zrotation Yrotation Xrotation
				JOINT RightFoot
				{
					OFFSET -2.500000 -6.900000 0.000000
					CHANNELS 3 Zrotation Yrotation Xrotation
					JOINT RightToeBase
					{
						OFFSET -0.200000 -0.500000 1.950000
						CHANNELS 3 Zrotation Yrotation Xrotation
						End Site
						{
							OFFSET 0.000000 0.000000 0.000000
						}
					}
				}
			}
		}
	}
	JOINT LowerBack
	{
		OFFSET 0.000000 0.000000 0.000000
		CHANNELS 3 Zrotation Yrotation Xrotation
		JOINT Spine
		{
			OFFSET -0.087000 1.940000 -0.288900
			CHANNELS 3 Zrotation Yrotation Xrotation
			JOINT Spine1
			{
				OFFSET 0.000000 1.950000 0.060000
				CHANNELS 3 Zrotation Yrotation Xrotation
				JOINT Neck
				{
					OFFSET 0.000000 0.000000 0.000000
					CHANNELS 3 Zrotation Yrotation Xrotation
					JOINT Neck1
					{
						OFFSET 0.000000 1.600000 0.340000
						CHANNELS 3 Zrotation Yrotation Xrotation
						JOINT Head
						{
							OFFSET 0.000000 1.667000 -0.240000
							CHANNELS 3 Zrotation Yrotation Xrotation
							End Site
							{
								OFFSET 0.000000 0.000000 0.000000
							}
						}
					}
				}
				JOINT LeftShoulder
				{
					OFFSET 0.000000 0.000000 0.000000
					CHANNELS 3 Zrotation Yrotation Xrotation
					JOINT LeftArm
					{
						OFFSET 2.700000 1.550000 -0.730000
						CHANNELS 3 Zrotation Yrotation Xrotation
						JOINT LeftForeArm
						{
							OFFSET 5.450000 0.000000 0.000000
							CHANNELS 3 Zrotation Yrotation Xrotation
							JOINT LeftHand
							{
								OFFSET 3.450000 0.000000 0.000000
								CHANNELS 3 Zrotation Yrotation Xrotation
								JOINT LeftHandIndex1
								{
									OFFSET 0.750000 0.000000 0.000000
									CHANNELS 3 Zrotation Yrotation Xrotation
									End Site
									{
										OFFSET 0.000000 0.000000 0.000000
									}
								}
							}
						}
					}
				}
				JOINT RightShoulder
				{
					OFFSET 0.000000 0.000000 0.000000
					CHANNELS 3 Zrotation Yrotation Xrotation
					JOINT RightArm
					{
						OFFSET -2.700000 1.550000 -0.730000
						CHANNELS 3 Zrotation Yrotation Xrotation
						JOINT RightForeArm
						{
							OFFSET -5.450000 0.000000 0.000000
							CHANNELS 3 Zrotation Yrotation Xrotation
							JOINT RightHand
							{
								OFFSET -3.450000 0.000000 0.000000
								CHANNELS 3 Zrotation Yrotation Xrotation
								JOINT RightHandIndex1
								{
									OFFSET -0.750000 0.000000 0.000000
									CHANNELS 3 Zrotation Yrotation Xrotation
									End Site
									{
										OFFSET 0.000000 0.000000 0.000000
									}
								}
							}
						}
					}
				}
			}
		}
	}
}
MOTION
Frames: 13
Frame Time: 0.016667
0.888390 17.604600 -0.306060 -1.443787 5.037610 1.355976 -15.220953 13.696082 2.683887 6.135741 -1.087713 -12.186926 -2.889259 4.335976 8.043145 -0.808069 3.976288 3.349349 -0.470050 -0.719930 -0.284460 18.177039 -10.739912 2.464381 -10.715349 0.404387 -10.003934 8.271379 -5.416027 9.624254 0.189906 -3.898541 3.102510 -0.126250 0.786750 0.061850 -3.468920 -2.774233 -6.782574 8.205416 -0.571567 4.073335 0.511707 -0.833650 8.541120 0.123373 -5.928028 -9.190870 -13.480507 15.121152 34.573682 -6.312480 15.622050 5.329420 -15.071691 -7.087580 2.952526 -3.596491 -3.986690 -0.549609 15.181845 -16.654816 -1.792167 -4.398189 2.746626 0.235200 0.564240 -0.497390 -0.060450 15.181645 10.444609 5.798961 11.735130 4.288097 -4.479505 -15.733010 23.258875 -2.339671 2.096259 -1.192260 -0.675550 0.350710 0.537870 -0.197220 
0.888390 17.604690 -0.306180 -1.440601 5.030948 1.347201 -15.221996 13.698779 2.684945 6.139116 -1.086257 -12.183759 -2.894901 4.339468 8.055456 -0.808635 3.977027 3.348489 -0.469230 -0.719600 -0.282580 18.175359 -10.740397 2.463907 -10.716580 0.404222 -10.001994 8.259560 -5.416322 9.639740 0.189100 -3.896377 3.103043 -0.126390 0.784710 0.061380 -3.464903 -2.778231 -6.784555 8.178550 -0.565946 4.092541 0.533425 -0.830163 8.538852 0.128264 -5.924262 -9.199398 -13.484996 15.115902 34.623783 -6.338010 15.630970 5.288850 -15.068912 -7.093179 2.956234 -3.586143 -3.972861 -0.551819 15.193287 -16.653854 -1.793419 -4.396529 2.744953 0.237490 0.562580 -0.495740 -0.060910 15.172648 10.453026 5.805568 11.724427 4.279976 -4.480841 -15.703154 23.265377 -2.331590 2.096275 -1.190427 -0.675790 0.351050 0.537340 -0.198300 
0.888600 17.604460 -0.305990 -1.445115 5.013054 1.341255 -15.223078 13.701859 2.685206 6.143505 -1.084007 -12.178282 -2.884081 4.340030 8.070904 -0.809070 3.976193 3.347830 -0.468490 -0.719050 -0.280470 18.173624 -10.741184 2.463953 -10.710325 0.404999 -10.003929 8.252846 -5.417601 9.658420 0.188091 -3.893903 3.103183 -0.126780 0.782010 0.060990 -3.460553 -2.781469 -6.786261 8.148283 -0.554585 4.108799 0.563645 -0.824459 8.542596 0.134835 -5.914042 -9.209637 -13.475766 15.108756 34.681601 -6.373150 15.651760 5.240090 -15.059920 -7.101426 2.962294 -3.551657 -3.948494 -0.553404 15.196742 -16.636847 -1.791100 -4.394683 2.743559 0.239810 0.560600 -0.493690 -0.061890 15.155031 10.460462 5.813575 11.719955 4.265815 -4.483861 -15.668884 23.284592 -2.323481 2.096491 -1.188528 -0.675600 0.350860 0.536830 -0.199420 
0.888790 17.604260 -0.305740 -1.449506 4.981968 1.330816 -15.224363 13.705589 2.685496 6.142288 -1.080284 -12.163208 -2.862160 4.337929 8.082318 -0.809998 3.974989 3.347334 -0.467790 -0.718750 -0.277790 18.171558 -10.742348 2.464249 -10.701356 0.406241 -10.004403 8.243795 -5.418819 9.678469 0.186883 -3.891032 3.103429 -0.127370 0.778940 0.060730 -3.455238 -2.784827 -6.788590 8.110328 -0.535411 4.134384 0.598395 -0.811376 8.542699 0.142069 -5.902361 -9.216823 -13.467529 15.094864 34.756091 -6.433640 15.678780 5.175760 -15.066445 -7.111959 2.961583 -3.461509 -3.922475 -0.552877 15.175276 -16.594261 -1.782404 -4.393136 2.741528 0.242750 0.558540 -0.491250 -0.063190 15.151517 10.470917 5.823305 11.698301 4.245835 -4.486804 -15.629008 23.300997 -2.313005 2.096531 -1.186109 -0.675540 0.350800 0.536450 -0.200970 
0.889010 17.604290 -0.305330 -1.454428 4.942987 1.319949 -15.225628 13.708711 2.685736 6.144769 -1.076214 -12.143341 -2.846446 4.336747 8.089064 -0.810902 3.974574 3.346571 -0.466090 -0.717740 -0.273930 18.169637 -10.743029 2.464805 -10.693335 0.407521 -10.001960 8.241055 -5.419764 9.693694 0.185433 -3.888272 3.103379 -0.127070 0.775310 0.060310 -3.449995 -2.787940 -6.790859 8.071271 -0.511333 4.160321 0.638249 -0.794256 8.543322 0.143581 -5.895476 -9.220811 -13.472023 15.089518 34.836845 -6.474960 15.699820 5.108790 -15.080462 -7.119733 2.957031 -3.348355 -3.898359 -0.550937 15.144448 -16.535286 -1.770927 -4.390889 2.739431 0.246060 0.555950 -0.488290 -0.064110 15.166211 10.482357 5.832135 11.670091 4.216967 -4.496456 -15.625120 23.327533 -2.310472 2.096960 -1.184337 -0.675800 0.350860 0.535010 -0.202670 
0.889350 17.604400 -0.304830 -1.465159 4.894022 1.306127 -15.226765 13.711894 2.686228 6.145451 -1.070511 -12.109931 -2.817521 4.330756 8.073195 -0.812114 3.972806 3.346192 -0.464770 -0.717600 -0.270040 18.167876 -10.744020 2.465237 -10.679626 0.409057 -9.999399 8.231915 -5.419786 9.711680 0.184407 -3.884476 3.104260 -0.127490 0.771280 0.059040 -3.445028 -2.790564 -6.793495 8.038634 -0.482868 4.187009 0.681898 -0.773359 8.544598 0.146897 -5.890336 -9.228145 -13.487603 15.086384 34.946620 -6.518720 15.725280 5.054670 -15.109617 -7.135610 2.952249 -3.212941 -3.870941 -0.550766 15.127159 -16.461198 -1.759781 -4.388516 2.737266 0.249680 0.552900 -0.485900 -0.065520 15.192330 10.502955 5.847427 11.625866 4.170570 -4.509889 -15.623903 23.362001 -2.307491 2.097040 -1.182116 -0.676310 0.351020 0.534180 -0.205000 
0.889720 17.604440 -0.304200 -1.465014 4.845917 1.294579 -15.228905 13.716002 2.686931 6.126160 -1.066141 -12.073795 -2.769309 4.319004 8.052358 -0.813631 3.969116 3.346619 -0.462690 -0.717070 -0.265830 18.165184 -10.744431 2.465286 -10.674818 0.410540 -9.995690 8.219036 -5.418438 9.726973 0.183522 -3.880565 3.105372 -0.127510 0.767040 0.057900 -3.437307 -2.796158 -6.795647 7.979993 -0.452277 4.210178 0.739599 -0.752269 8.546891 0.145057 -5.889867 -9.235809 -13.514269 15.091932 35.052200 -6.543810 15.743780 5.004080 -15.134632 -7.148442 2.947911 -3.077380 -3.840181 -0.550507 15.122634 -16.391306 -1.751133 -4.386075 2.735582 0.253270 0.549850 -0.483730 -0.066840 15.226701 10.526211 5.863514 11.568622 4.119370 -4.522300 -15.619460 23.393184 -2.303384 2.096766 -1.180421 -0.676570 0.350880 0.533110 -0.207610 
0.890430 17.604600 -0.303610 -1.467221 4.798702 1.280743 -15.230878 13.719216 2.687799 6.108667 -1.060113 -12.029281 -2.726095 4.307280 8.018136 -0.814455 3.965586 3.347053 -0.461750 -0.717250 -0.262610 18.162687 -10.744687 2.465708 -10.676129 0.411251 -9.988470 8.220441 -5.420806 9.739648 0.182813 -3.878666 3.105742 -0.128240 0.763380 0.056860 -3.430140 -2.800401 -6.798478 7.925932 -0.419391 4.235029 0.791228 -0.728295 8.546306 0.146312 -5.881563 -9.240231 -13.526401 15.092775 35.174578 -6.576520 15.771580 4.977770 -15.175228 -7.166318 2.937836 -2.915552 -3.820687 -0.554328 15.133565 -16.321229 -1.743403 -4.384336 2.734165 0.256110 0.547380 -0.482020 -0.068480 15.269518 10.547338 5.880515 11.504473 4.065032 -4.530073 -15.597148 23.414505 -2.295129 2.097149 -1.178724 -0.676680 0.350320 0.532570 -0.209740 
0.891500 17.604790 -0.302990 -1.477845 4.761913 1.267020 -15.232600 13.721759 2.688652 6.095655 -1.053980 -11.985417 -2.680806 4.293232 7.971891 -0.813263 3.959917 3.347924 -0.460550 -0.716300 -0.259430 18.160528 -10.744602 2.466601 -10.673733 0.410827 -9.976319 8.232252 -5.424642 9.749598 0.181062 -3.877382 3.104787 -0.129060 0.758600 0.056490 -3.424001 -2.803984 -6.801778 7.884785 -0.390335 4.257980 0.843901 -0.709559 8.548687 0.149941 -5.871179 -9.248069 -13.536727 15.086988 35.307327 -6.615610 15.800360 4.953940 -15.211686 -7.187523 2.930176 -2.762675 -3.804815 -0.563462 15.171723 -16.265154 -1.739229 -4.381810 2.734049 0.258080 0.544280 -0.479160 -0.070150 15.303260 10.568821 5.900638 11.439133 4.007492 -4.532877 -15.554190 23.429078 -2.281968 2.098882 -1.177663 -0.675150 0.348470 0.531350 -0.211100 
0.892600 17.605030 -0.302240 -1.487652 4.732248 1.253809 -15.234960 13.724376 2.689585 6.076495 -1.048548 -11.938115 -2.628397 4.276487 7.917761 -0.813127 3.954641 3.348416 -0.459390 -0.716070 -0.256670 18.157991 -10.744244 2.466681 -10.669878 0.410248 -9.962308 8.236651 -5.428045 9.764286 0.180293 -3.877057 3.103776 -0.129650 0.754450 0.056410 -3.416463 -2.808739 -6.803942 7.830116 -0.360473 4.271654 0.909067 -0.693224 8.555467 0.147987 -5.858233 -9.249749 -13.540949 15.085347 35.437569 -6.635350 15.824400 4.958230 -15.245720 -7.203702 2.919464 -2.613518 -3.802131 -0.571880 15.227096 -16.209472 -1.738289 -4.379923 2.735102 0.259790 0.541870 -0.477350 -0.071690 15.346338 10.582967 5.915260 11.368242 3.948765 -4.539006 -15.534345 23.453841 -2.274687 2.100032 -1.177775 -0.674170 0.345970 0.530460 -0.212660 
0.894110 17.605060 -0.301500 -1.507403 4.703328 1.244724 -15.236420 13.724858 2.689878 6.070610 -1.043086 -11.896877 -2.592166 4.263546 7.864877 -0.812282 3.951224 3.348246 -0.459510 -0.716880 -0.255390 18.156647 -10.743881 2.467288 -10.660917 0.409404 -9.945740 8.245558 -5.430931 9.765180 0.179676 -3.877920 3.102138 -0.130730 0.751260 0.057240 -3.411889 -2.809470 -6.805416 7.797584 -0.332285 4.273731 0.960611 -0.678799 8.568415 0.149046 -5.836413 -9.247806 -13.520818 15.074478 35.559522 -6.665460 15.853530 4.985210 -15.276961 -7.221290 2.908032 -2.454200 -3.799474 -0.582292 15.298355 -16.160750 -1.739221 -4.379293 2.737023 0.260440 0.540500 -0.475900 -0.073110 15.378403 10.588721 5.926473 11.309020 3.902600 -4.541094 -15.514659 23.464271 -2.267080 2.101473 -1.178354 -0.672960 0.342890 0.530320 -0.213590 
0.895480 17.604980 -0.300760 -1.525181 4.671170 1.236603 -15.238160 13.725104 2.689721 6.067993 -1.037196 -11.858644 -2.563445 4.253671 7.820084 -0.812107 3.949181 3.348061 -0.460080 -0.717920 -0.254780 18.155272 -10.742929 2.467956 -10.647511 0.407760 -9.922904 8.244614 -5.429037 9.749606 0.179269 -3.878235 3.100820 -0.131640 0.749130 0.057430 -3.406723 -2.810732 -6.805999 7.755749 -0.304361 4.269149 1.016865 -0.666401 8.585319 0.144670 -5.815113 -9.240888 -13.500875 15.067074 35.677539 -6.684170 15.877470 5.017180 -15.299682 -7.232887 2.894633 -2.283229 -3.795431 -0.590075 15.360807 -16.119747 -1.739417 -4.378971 2.738565 0.261070 0.539490 -0.475340 -0.074590 15.412674 10.588976 5.931572 11.255221 3.867850 -4.544888 -15.507614 23.483962 -2.263736 2.102290 -1.178917 -0.672570 0.340760 0.530750 -0.214500 
0.896890 17.604840 -0.300000 -1.551178 4.643352 1.233935 -15.239695 13.724705 2.689141 6.076101 -1.032147 -11.825799 -2.536940 4.243752 7.770670 -0.810492 3.947022 3.347859 -0.460340 -0.718550 -0.254480 18.154330 -10.741180 2.468794 -10.629628 0.406756 -9.903745 8.251507 -5.427386 9.731464 0.178644 -3.878778 3.098975 -0.132670 0.747280 0.058340 -3.402507 -2.812086 -6.805861 7.723791 -0.281797 4.255230 1.078906 -0.661558 8.605698 0.135808 -5.800978 -9.234840 -13.493138 15.066232 35.776878 -6.683540 15.893480 5.066810 -15.317270 -7.242897 2.885390 -2.117430 -3.776742 -0.597623 15.425184 -16.097296 -1.740476 -4.378327 2.742267 0.260550 0.538500 -0.474740 -0.075500 15.450666 10.591270 5.936266 11.180912 3.828974 -4.546416 -15.491571 23.511672 -2.258880 2.103724 -1.180549 -0.671090 0.337930 0.530910 -0.214530 
